<svg width="32" height="32" viewBox="0 0 32 32" fill="none" xmlns="http://www.w3.org/2000/svg">
<rect width="32" height="32" fill="#4F46DD"/>
<path d="M19.4472 12.5726C19.3733 11.8278 19.0563 11.2492 18.4962 10.8368C17.936 10.4244 17.1759 10.2182 16.2156 10.2182C15.5632 10.2182 15.0123 10.3105 14.5629 10.4952C14.1136 10.6737 13.7689 10.923 13.5288 11.243C13.2949 11.5631 13.178 11.9263 13.178 12.3325C13.1657 12.6711 13.2365 12.9665 13.3903 13.2189C13.5504 13.4713 13.7689 13.6898 14.0459 13.8744C14.3229 14.0529 14.643 14.2099 15.0061 14.3453C15.3693 14.4746 15.7571 14.5854 16.1695 14.6777L17.8683 15.084C18.6931 15.2686 19.4502 15.5148 20.1396 15.8226C20.829 16.1304 21.4261 16.5089 21.9308 16.9582C22.4356 17.4076 22.8264 17.9369 23.1034 18.5463C23.3866 19.1557 23.5312 19.8543 23.5374 20.6422C23.5312 21.7994 23.2358 22.8027 22.651 23.6521C22.0724 24.4954 21.2353 25.151 20.1396 25.6188C19.0502 26.0804 17.736 26.3112 16.1972 26.3112C14.6707 26.3112 13.3411 26.0773 12.2085 25.6095C11.0821 25.1417 10.2019 24.4492 9.56791 23.5321C8.94007 22.6088 8.61076 21.467 8.57998 20.1067H12.4486C12.4917 20.7407 12.6733 21.27 12.9933 21.6948C13.3196 22.1133 13.7535 22.4303 14.2952 22.6457C14.843 22.855 15.4616 22.9597 16.151 22.9597C16.8281 22.9597 17.4159 22.8612 17.9145 22.6642C18.4192 22.4672 18.8101 22.1933 19.0871 21.8425C19.3641 21.4916 19.5026 21.0885 19.5026 20.633C19.5026 20.2082 19.3764 19.8512 19.124 19.5619C18.8778 19.2726 18.5146 19.0264 18.0345 18.8233C17.5606 18.6202 16.9789 18.4355 16.2895 18.2693L14.2305 17.7523C12.6363 17.3645 11.3776 16.7582 10.4543 15.9334C9.53097 15.1086 9.0724 13.9975 9.07856 12.6003C9.0724 11.4554 9.37709 10.4552 9.99262 9.59958C10.6143 8.74399 11.4668 8.07614 12.5502 7.59603C13.6335 7.11591 14.8645 6.87586 16.2433 6.87586C17.6467 6.87586 18.8716 7.11591 19.918 7.59603C20.9706 8.07614 21.7893 8.74399 22.374 9.59958C22.9588 10.4552 23.2604 11.4462 23.2788 12.5726H19.4472Z" fill="white"/>
</svg>
